<?xml version="1.0" encoding="UTF-8" standalone="no"?>
<!-- Created with Inkscape (http://www.inkscape.org/) -->

<svg
   xmlns:dc="http://purl.org/dc/elements/1.1/"
   xmlns:cc="http://creativecommons.org/ns#"
   xmlns:rdf="http://www.w3.org/1999/02/22-rdf-syntax-ns#"
   xmlns:svg="http://www.w3.org/2000/svg"
   xmlns="http://www.w3.org/2000/svg"
   xmlns:sodipodi="http://sodipodi.sourceforge.net/DTD/sodipodi-0.dtd"
   xmlns:inkscape="http://www.inkscape.org/namespaces/inkscape"
   width="744.09448819"
   height="1052.3622047"
   id="svg5295"
   version="1.1"
   inkscape:version="0.48.3.1 r9886"
   sodipodi:docname="New document 19">
  <defs
     id="defs5297" />
  <sodipodi:namedview
     id="base"
     pagecolor="#ffffff"
     bordercolor="#666666"
     borderopacity="1.0"
     inkscape:pageopacity="0.0"
     inkscape:pageshadow="2"
     inkscape:zoom="0.35"
     inkscape:cx="375"
     inkscape:cy="520"
     inkscape:document-units="px"
     inkscape:current-layer="layer1"
     showgrid="false"
     inkscape:window-width="459"
     inkscape:window-height="380"
     inkscape:window-x="0"
     inkscape:window-y="24"
     inkscape:window-maximized="0" />
  <metadata
     id="metadata5300">
    <rdf:RDF>
      <cc:Work
         rdf:about="">
        <dc:format>image/svg+xml</dc:format>
        <dc:type
           rdf:resource="http://purl.org/dc/dcmitype/StillImage" />
        <dc:title></dc:title>
      </cc:Work>
    </rdf:RDF>
  </metadata>
  <g
     inkscape:label="Layer 1"
     inkscape:groupmode="layer"
     id="layer1">
    <path
       inkscape:connector-curvature="0"
       style="fill:none;stroke:#000000;stroke-width:1;stroke-miterlimit:4;stroke-opacity:1;stroke-dasharray:none;stroke-dashoffset:0"
       d="m 341.22545,156.23272 c -5.54963,0 -10.38253,11.34836 -13.15625,28.40625 -1.4868,-10.63366 -3.85288,-17.53125 -6.53125,-17.53125 -1.91756,0 -3.67003,3.56125 -5.0625,9.46875 -1.86987,-9.93292 -4.68342,-16.28125 -7.84375,-16.28125 -2.18323,0 -4.21634,3.04547 -5.875,8.1875 -1.35941,-2.64644 -2.83065,-4.09375 -4.34375,-4.09375 -6.56849,0 -12.04506,27.01344 -13.3125,62.9375 -1.87966,-5.4527 -4.05857,-8.5625 -6.375,-8.5625 -7.13151,0 -12.9375,29.49804 -12.9375,65.90625 0,8.94952 0.36718,17.46952 1,25.25 -1.13832,-2.68246 -2.40505,-4.1875 -3.71875,-4.1875 -5.25479,0 -9.5,23.75455 -9.5,53.03125 0,29.2767 4.24521,53 9.5,53 0.94133,0 1.86004,-0.76884 2.71875,-2.1875 -9.9e-4,0.2738 0,0.53741 0,0.8125 0,22.52054 3.37123,40.78125 7.5,40.78125 1.09734,0 2.12377,-1.30849 3.0625,-3.625 1.97773,15.7195 6.55504,26.75 11.875,26.75 0.81115,0 1.60531,-0.26057 2.375,-0.75 1.02481,23.91132 4.42971,41.53125 8.5,41.53125 1.58866,0 3.08684,-2.72009 4.375,-7.40625 2.20238,23.33859 7.92681,40.03125 14.65625,40.03125 2.49484,0 4.84514,-2.30738 6.9375,-6.375 1.35164,11.48488 3.25581,18.59375 5.3125,18.59375 2.23172,0 4.22397,-8.40494 5.59375,-21.65625 3.21576,12.50171 7.73889,20.3125 12.75,20.3125 6.11361,0 11.51498,-11.61384 14.6875,-29.21875 1.99385,16.99013 5.00202,27.84375 8.40625,27.84375 3.30333,0 6.25571,-10.24553 8.25,-26.375 1.43127,9.63053 3.29949,15.5 5.34375,15.5 2.54267,0 4.81685,-9.022 6.3125,-23.15625 2.03763,6.82902 4.5453,10.9375 7.28125,10.9375 5.17393,0 9.58678,-14.48175 11.375,-34.90625 1.60709,5.71517 3.55682,9.0625 5.625,9.0625 4.11747,0 7.64108,-13.21251 9.25,-32.1875 1.74209,3.21019 3.66669,5 5.6875,5 7.88219,0 14.28125,-27.06328 14.28125,-60.46875 0,-10.9244 -0.67957,-21.15434 -1.875,-30 3.6035,-10.75581 5.9375,-28.9284 5.9375,-49.53125 0,-33.03013 -6.0869,-59.8125 -13.59375,-59.8125 -1.15113,0 -2.24503,0.65849 -3.3125,1.84375 -0.90489,-27.70818 -2.74198,-46.6875 -4.84375,-46.6875 -1.11654,0 -2.1366,5.36799 -3,14.53125 -3.14391,-16.61842 -7.33743,-26.75 -11.9375,-26.75 -1.34592,0 -2.64653,0.88673 -3.90625,2.53125 -3.05701,-6.79904 -6.6131,-10.6875 -10.375,-10.6875 -1.02514,0 -2.01401,0.28692 -3,0.84375 -2.33429,-18.34623 -6.73659,-30.75 -11.8125,-30.75 -1.91785,0 -3.75172,1.77977 -5.40625,4.96875 -4.35797,-10.54858 -10.7522,-17.21875 -17.84375,-17.21875 -2.60077,0 -5.09504,0.90938 -7.4375,2.5625 -2.86058,-12.39225 -6.9901,-20.21875 -11.59375,-20.21875 z"
       id="path5242" />
  </g>
</svg>
